<svg xmlns="http://www.w3.org/2000/svg" width="35" height="35" viewBox="0 0 35 35"><defs><style>.a{fill:#de9091;}</style></defs><path class="a" d="M14.766,0h5.469a1.637,1.637,0,0,1,1.641,1.641V13.125h6a1.365,1.365,0,0,1,.964,2.331l-10.4,10.4a1.324,1.324,0,0,1-1.866,0L6.159,15.456a1.365,1.365,0,0,1,.964-2.331h6V1.641A1.637,1.637,0,0,1,14.766,0ZM35,25.7v7.656A1.637,1.637,0,0,1,33.359,35H1.641A1.637,1.637,0,0,1,0,33.359V25.7a1.637,1.637,0,0,1,1.641-1.641H11.669l3.35,3.35a3.5,3.5,0,0,0,4.963,0l3.35-3.35H33.359A1.637,1.637,0,0,1,35,25.7Zm-8.477,6.016a1.367,1.367,0,1,0-1.367,1.367A1.371,1.371,0,0,0,26.523,31.719Zm4.375,0a1.367,1.367,0,1,0-1.367,1.367A1.371,1.371,0,0,0,30.9,31.719Z"/></svg>