<svg xmlns="http://www.w3.org/2000/svg" width="23.339" height="20" viewBox="0 0 23.339 20"><defs><style>.a{fill:#bbb;}</style></defs><path class="a" d="M13.922,8.708a5.29,5.29,0,0,1,5.307,5.266,5.065,5.065,0,0,1-.38,1.927l3.1,3.073a12.451,12.451,0,0,0,3.641-5,12.569,12.569,0,0,0-15.9-7.161l2.292,2.276A5.248,5.248,0,0,1,13.922,8.708ZM3.313,5.839l2.422,2.4.49.484a12.392,12.392,0,0,0-3.974,5.25,12.587,12.587,0,0,0,16.318,7.01l.448.443L22.125,24.5l1.349-1.339L4.656,4.5Zm5.865,5.818,1.646,1.63a2.984,2.984,0,0,0-.083.682,3.166,3.166,0,0,0,3.182,3.156,2.993,2.993,0,0,0,.688-.083l1.646,1.63a5.28,5.28,0,0,1-7.641-4.708A5.2,5.2,0,0,1,9.177,11.656Zm4.573-.818,3.344,3.318.021-.167a3.166,3.166,0,0,0-3.182-3.156Z" transform="translate(-2.25 -4.5)"/></svg>