<?xml version="1.0" encoding="UTF-8"?><svg id="Layer_2" xmlns="http://www.w3.org/2000/svg" viewBox="0 0 37.42 37.61"><defs><style>.cls-1{fill:#333;}.cls-2{fill:#de8f91;}</style></defs><g id="Layer_1-2"><circle class="cls-1" cx="6.61" cy="31" r="6.61"/><path class="cls-1" d="M12.04,36.62c-.44,.27-.25,.95,.26,.92,18.72-1.17,19.28-15.81,19.28-16.98V.49c0-.27-.22-.49-.49-.49h-13.52c-.27,0-.49,.22-.49,.49V27.77c0,.8-.09,1.59-.31,2.36-.5,1.75-1.74,4.68-4.73,6.49Z"/><path class="cls-2" d="M33.4,37.54c-.47-.31-.89-.65-1.3-.99-.65-.55-1.26-1.15-1.79-1.83-.46-.6-.83-1.24-.92-2.02-.14-1.11,.57-2.22,1.65-2.46,.78-.17,1.49,0,2.07,.58,.07,.07,.14,.15,.22,.22,.01,.01,.04,.02,.07,.02,.12-.02,.18-.13,.25-.21,.67-.7,1.63-.82,2.39-.53,.84,.32,1.36,1.11,1.37,2.02,0,.59-.14,1.14-.44,1.66-.5,.84-1.16,1.55-1.88,2.2-.48,.44-.98,.85-1.52,1.22-.06,.04-.11,.07-.19,.12Z"/></g></svg>