<?xml version="1.0" encoding="utf-8"?>
<!-- Generator: Adobe Illustrator 26.3.1, SVG Export Plug-In . SVG Version: 6.00 Build 0)  -->
<svg version="1.1" id="Layer_1" xmlns="http://www.w3.org/2000/svg" xmlns:xlink="http://www.w3.org/1999/xlink" x="0px" y="0px"
	 viewBox="0 0 17.5 20" style="enable-background:new 0 0 17.5 20;" xml:space="preserve">
<style type="text/css">
	.st0{fill:#DE9091;}
</style>
<path class="st0" d="M1.2,18.1c0,1,0.8,1.9,1.9,1.9l0,0h11.2c1,0,1.9-0.8,1.9-1.9l0,0V5h-15V18.1z M11.9,8.1c0-0.3,0.3-0.6,0.6-0.6
	s0.6,0.3,0.6,0.6v8.8c0,0.3-0.3,0.6-0.6,0.6s-0.6-0.3-0.6-0.6V8.1z M8.1,8.1c0-0.3,0.3-0.6,0.6-0.6s0.6,0.3,0.6,0.6v8.8
	c0,0.3-0.3,0.6-0.6,0.6s-0.6-0.3-0.6-0.6V8.1z M4.4,8.1c0-0.3,0.3-0.6,0.6-0.6s0.6,0.3,0.6,0.6v8.8c0,0.3-0.3,0.6-0.6,0.6
	s-0.6-0.3-0.6-0.6V8.1z M16.9,1.3h-4.7l-0.4-0.7C11.7,0.2,11.3,0,11,0H6.5C6.2,0,5.8,0.2,5.7,0.5L5.3,1.3H0.6C0.3,1.3,0,1.5,0,1.9
	v1.2c0,0.3,0.3,0.6,0.6,0.6h16.2c0.3,0,0.6-0.3,0.6-0.6V1.9C17.5,1.5,17.2,1.3,16.9,1.3z"/>
</svg>
